<?xml version="1.0" encoding="UTF-8"?>
<svg version="1.1" xmlns="http://www.w3.org/2000/svg" width="512" height="512">
<path d="M0 0 C3.27610715 5.96719517 2.52149776 11.2021391 0.8515625 17.6640625 C-2.37446733 27.87433496 -7.06083838 37.54304634 -11.48788452 47.27111816 C-18.11366072 61.8510612 -23.89452213 76.59838832 -28.125 92.0625 C-28.31642578 92.75037598 -28.50785156 93.43825195 -28.70507812 94.14697266 C-32.12619538 107.49244004 -32.65194709 121.48786087 -33.375 135.1875 C-33.46173522 136.7526322 -33.54897273 138.31773664 -33.63671875 139.8828125 C-33.84690302 143.65074884 -34.05040751 147.41898838 -34.25 151.1875 C-33.49960449 151.47850586 -32.74920898 151.76951172 -31.97607422 152.06933594 C0.19742052 165.26605866 31.34078838 188.80894707 57.75 211.1875 C58.55050781 211.86425781 59.35101563 212.54101562 60.17578125 213.23828125 C71.75811618 223.26332745 85.06743578 237.13982639 87.26171875 252.8515625 C87.69237554 262.09632832 87.69237554 262.09632832 84.375 265.9375 C70.02094773 270.8871732 54.9208888 269.58101272 40.0625 267.75 C39.39132141 267.66946381 38.72014282 267.58892761 38.02862549 267.50595093 C19.69274302 265.26923975 1.61815936 261.40352819 -16.43882751 257.57073975 C-21.03125586 256.60430461 -25.59583743 255.79373411 -30.25 255.1875 C-29.78327881 256.35261108 -29.78327881 256.35261108 -29.30712891 257.54125977 C-12.52787422 299.63101956 1.24946024 343.03644312 6.75 388.1875 C6.84571289 388.94748291 6.94142578 389.70746582 7.04003906 390.49047852 C8.08925648 400.12428751 7.99375041 409.82097733 8 419.5 C8.00067474 420.4374707 8.00134949 421.37494141 8.00204468 422.34082031 C7.97585388 445.23598128 7.18783336 471.06967917 -5.25 491.1875 C-5.67796875 491.89003906 -6.1059375 492.59257812 -6.546875 493.31640625 C-12.69222528 502.41359613 -22.11539387 507.78605951 -32.75 509.875 C-52.53480977 511.64150087 -70.2900024 504.1864581 -85.35546875 491.6484375 C-97.1755875 481.44472931 -104.89514436 469.3084355 -111.25 455.1875 C-111.68199707 454.23601074 -112.11399414 453.28452148 -112.55908203 452.30419922 C-117.6143936 440.86678918 -121.62688126 429.07591834 -125.71826172 417.26806641 C-130.82489872 400.02895747 -130.82489872 400.02895747 -140.25 385.1875 C-145.47574215 385.06307757 -148.4165709 387.39372762 -152.05859375 390.80078125 C-160.01294976 399.46408165 -166.07838927 409.909304 -172.41015625 419.7734375 C-195.24333413 455.3197379 -195.24333413 455.3197379 -209.1015625 469.91796875 C-211.02115628 471.94575781 -212.79101494 474.03147306 -214.5625 476.1875 C-230.25021472 494.1110806 -254.34197333 508.62183385 -278.28857422 510.41503906 C-295.986774 511.24746437 -311.21924884 510.74982971 -325.07421875 498.5859375 C-339.26998024 484.10307072 -343.34516247 461.60900665 -343.453125 442.1328125 C-343.46022995 441.28271606 -343.4673349 440.43261963 -343.47465515 439.5567627 C-344.05711383 349.15588574 -315.08726867 252.92623841 -251.7109375 186.52734375 C-249.91089864 184.72412461 -248.09985057 182.93941731 -246.25 181.1875 C-247.77272136 180.42613932 -249.29547656 179.66484627 -250.81835938 178.90380859 C-252.22382544 178.20074188 -253.62874932 177.49659055 -255.03320312 176.79150391 C-259.13271621 174.73562085 -263.24119096 172.70147188 -267.3671875 170.69921875 C-321.10573454 144.47603092 -321.10573454 144.47603092 -328.25 130.1875 C-328.74582073 125.97302379 -328.55680391 123.10011539 -326.25 119.5625 C-318.13962393 109.49211638 -304.24822351 107.05835664 -292.05957031 105.59423828 C-277.10719519 103.99781064 -262.14594698 103.99030107 -247.125 104 C-245.97946655 103.9992749 -244.83393311 103.9985498 -243.65368652 103.99780273 C-227.62288635 103.99892271 -211.74023227 104.38743856 -195.765625 105.75 C-194.79931152 105.8236377 -193.83299805 105.89727539 -192.83740234 105.97314453 C-191.27106016 106.10290943 -189.70633885 106.26628597 -188.15087891 106.49169922 C-181.15650137 107.1805801 -175.80866867 102.90472915 -170.125 99.3125 C-169.00988037 98.62357666 -167.89476074 97.93465332 -166.74584961 97.22485352 C-154.67937598 89.70649197 -143.45317547 81.40374172 -132.27172852 72.64257812 C-123.73721852 65.96691879 -115.00981726 59.56309649 -106.25 53.1875 C-105.50250488 52.6423877 -104.75500977 52.09727539 -103.98486328 51.53564453 C-98.75807263 47.72737444 -93.50986017 43.94993055 -88.25 40.1875 C-87.46012695 39.6203125 -86.67025391 39.053125 -85.85644531 38.46875 C-69.51066457 26.75677915 -52.80371434 15.9398209 -35 6.5625 C-34.05987061 6.06540527 -33.11974121 5.56831055 -32.15112305 5.05615234 C-22.52604645 0.09164822 -10.45457736 -5.83043737 0 0 Z M-182.875 212.25 C-183.93895996 212.7291687 -183.93895996 212.7291687 -185.02441406 213.21801758 C-203.04593949 221.52041268 -216.58316361 233.95477944 -223.58984375 252.7890625 C-226.23987081 261.14466382 -227.49089711 268.76502559 -227.625 277.5 C-227.66238281 278.41201172 -227.69976562 279.32402344 -227.73828125 280.26367188 C-227.8351041 287.76744264 -225.76849738 292.42659073 -220.66601562 297.88061523 C-206.83967507 311.27088725 -186.7700805 312.7866168 -168.64453125 312.66235352 C-151.42133735 312.24179257 -132.77689112 308.65187505 -119.25 297.1875 C-112.29196113 289.58602958 -110.60599519 282.83133187 -110.8671875 272.59765625 C-111.79994668 257.43528678 -119.44344793 243.77584091 -128.8046875 232.234375 C-131.25 229.1875 -131.25 229.1875 -132.8203125 226.828125 C-137.85846084 219.72516177 -146.04639165 217.69230048 -153.95507812 214.98242188 C-156.10533699 214.2376088 -158.23301184 213.45076728 -160.359375 212.640625 C-169.39097585 209.24901118 -173.92468806 208.19684805 -182.875 212.25 Z " fill="#FFFFFF" transform="translate(384.25,1.8125)"/>
</svg>
