<?xml version="1.0" encoding="UTF-8"?>
<svg version="1.1" xmlns="http://www.w3.org/2000/svg" width="512" height="455">
<path d="M0 0 C4.46588417 2.84374687 7.35623738 6.41723427 9.5625 11.25 C10.40711996 15.08918163 10.38537417 18.44914909 10.25 22.375 C11.03616699 22.36049805 11.82233398 22.34599609 12.63232422 22.33105469 C20.63509067 22.2480999 28.42814871 22.70473457 36.375 23.625 C37.55006104 23.76067383 38.72512207 23.89634766 39.93579102 24.03613281 C76.63534512 28.47605975 107.90819088 44.66062318 140.7071991 60.7510376 C143.82232767 62.27681648 146.94107691 63.79505572 150.06134033 65.31030273 C151.48271547 66.00174611 152.90283769 66.69577319 154.32147217 67.39282227 C168.66735919 74.42918227 182.93044557 78.09877622 198.61328125 80.72949219 C221.19366864 84.55223866 221.19366864 84.55223866 228.65625 94.19140625 C233.23296138 100.98995135 235.01065205 107.49790355 233.90625 115.66796875 C231.48853488 125.64104361 225.81771099 132.71541433 218.25 139.375 C219.58101943 143.7624344 221.32736499 147.80834983 223.27099609 151.94555664 C226.9503468 159.80556765 230.30199468 167.72885457 233.125 175.9375 C233.39852295 176.7013501 233.6720459 177.4652002 233.95385742 178.25219727 C238.64259845 192.38811981 239.67692197 207.70916177 240.69927979 222.47821045 C240.88009284 225.07308814 241.07570894 227.66657709 241.27294922 230.26025391 C241.92392656 239.05317853 242.32827203 247.76541905 242.35351562 256.58300781 C242.17765856 267.26721733 242.17765856 267.26721733 247.375 276.25 C248.99921492 277.62592729 250.62420455 279.00094062 252.25 280.375 C254.296875 283.109375 254.296875 283.109375 256.125 286 C256.65867187 286.83789062 257.19234375 287.67578125 257.7421875 288.5390625 C261.69068522 295.96551157 262.77485913 302.14135715 262.6875 310.5625 C262.67614014 312.08834717 262.67614014 312.08834717 262.66455078 313.64501953 C262.38827224 326.29131676 259.1863887 336.53372494 250.67236328 346.15844727 C248.90103096 348.91881908 248.92854004 350.48586353 249.02734375 353.7421875 C249.0579187 355.30791504 249.0579187 355.30791504 249.08911133 356.90527344 C249.13781372 358.56091309 249.13781372 358.56091309 249.1875 360.25 C249.39560356 375.85220247 249.35350309 393.06136369 238.25 405.375 C231.04058295 410.13593579 223.80486796 412.57218203 215.08984375 410.98046875 C206.39504226 408.66881484 201.62642771 402.18751547 196.25 395.375 C195.54875 396.18324219 194.8475 396.99148438 194.125 397.82421875 C186.12927196 406.89406318 178.3091721 414.23297891 165.73828125 415.66015625 C161.25747236 415.81797953 158.38599034 415.57449437 154.5 413.3125 C152.52359194 412.3662244 152.52359194 412.3662244 150.25 412.375 C147.47966289 413.76016855 145.01611608 415.39938583 142.48461914 417.17749023 C107.86314536 441.31433959 60.12317062 453.37185347 18.203125 453.578125 C17.27062927 453.58382507 16.33813354 453.58952515 15.37738037 453.59539795 C13.41094065 453.60478439 11.44448565 453.6113564 9.47802734 453.61523438 C6.5488534 453.6248398 3.62041326 453.65588313 0.69140625 453.6875 C-45.35035728 453.94596019 -89.94333716 439.37563335 -128.53515625 414.5859375 C-131.7011689 412.85496057 -133.29252994 413.44414267 -136.75 414.375 C-137.70326172 414.74431641 -137.70326172 414.74431641 -138.67578125 415.12109375 C-147.00734488 418.3044517 -155.67881814 418.84999732 -164.125 415.6875 C-172.04265515 412.0105307 -176.85565637 407.59998346 -181.75 400.375 C-182.678125 401.220625 -183.60625 402.06625 -184.5625 402.9375 C-192.61840044 409.83086196 -201.43545574 415.99690194 -212.3828125 415.68359375 C-219.18237504 414.79718213 -224.36731244 411.69242408 -228.53515625 406.30078125 C-236.76086762 393.26130953 -233.98050911 376.77373289 -231.75 362.375 C-232.33007812 362.02308594 -232.91015625 361.67117188 -233.5078125 361.30859375 C-242.25349933 355.78120422 -247.26194167 350.53857806 -249.75 340.375 C-250.16158763 337.1319159 -250.22837855 333.95395185 -250.1875 330.6875 C-250.17847656 329.81319336 -250.16945312 328.93888672 -250.16015625 328.03808594 C-249.61632829 307.47081464 -238.37539627 290.56861175 -226.95166016 274.22753906 C-224.55993559 270.54033752 -223.44566468 268.39750613 -224.10546875 263.96484375 C-229.03071766 224.03019589 -219.71532001 181.61646168 -200.75 146.375 C-200.40211426 145.71935059 -200.05422852 145.06370117 -199.69580078 144.38818359 C-191.35811271 128.74690972 -181.47249667 114.65215706 -169.75 101.375 C-169.028125 100.53066406 -168.30625 99.68632813 -167.5625 98.81640625 C-163.29208951 93.87040347 -158.81512645 89.49958338 -153.75 85.375 C-152.83863281 84.61445312 -151.92726563 83.85390625 -150.98828125 83.0703125 C-137.75083627 72.40727652 -123.41729117 65.14647756 -107.37109375 59.65234375 C-103.98024444 58.74911384 -103.98024444 58.74911384 -102.75 57.375 C-103.26949219 56.93929687 -103.78898438 56.50359375 -104.32421875 56.0546875 C-110.88621575 50.45091187 -116.88139095 45.15580892 -118.75 36.375 C-119.01697697 30.78984182 -117.39034624 25.66899957 -113.75 21.375 C-105.8837506 14.39169696 -96.97779371 12.86323201 -86.71484375 13.13671875 C-75.03251343 14.07561486 -65.66690072 17.92838409 -55.51953125 23.42578125 C-52.958251 24.79971304 -50.35584841 26.08816128 -47.75 27.375 C-47.54375 26.59125 -47.3375 25.8075 -47.125 25 C-42.68437642 13.29290148 -35.624076 4.88853865 -24.484375 -0.77734375 C-17.46360066 -2.95378379 -6.80032676 -3.13258814 0 0 Z M-136.75 190.375 C-137.37696777 190.5704541 -138.00393555 190.7659082 -138.64990234 190.96728516 C-150.56683206 194.77429214 -161.23864967 200.64221653 -171.75 207.375 C-172.87450562 208.04656128 -172.87450562 208.04656128 -174.02172852 208.73168945 C-177.91111028 211.26436103 -180.11206573 213.10425618 -181.15234375 217.73046875 C-181.36643236 219.33679004 -181.54427508 220.94831642 -181.6875 222.5625 C-181.78611328 223.34947266 -181.88472656 224.13644531 -181.98632812 224.94726562 C-182.28520255 227.42050168 -182.52153975 229.89433622 -182.75 232.375 C-182.8420874 233.23778564 -182.9341748 234.10057129 -183.02905273 234.98950195 C-183.7515988 242.06200551 -183.94169591 249.0806822 -183.9375 256.1875 C-183.93814453 257.32300293 -183.93878906 258.45850586 -183.93945312 259.62841797 C-183.888464 267.73221302 -183.26517788 275.40661041 -181.75 283.375 C-173.24834931 285.62667481 -164.69571359 287.44783124 -156.05175781 289.05493164 C-154.01504634 289.43469448 -151.98019025 289.82343682 -149.9453125 290.21289062 C-136.16730813 292.81724673 -122.56207371 294.74718731 -108.5 294.625 C-107.34322754 294.61823242 -106.18645508 294.61146484 -104.99462891 294.60449219 C-81.03019623 294.3197138 -54.02875257 292.0836132 -34.75 276.375 C-34.09128906 275.84132813 -33.43257812 275.30765625 -32.75390625 274.7578125 C-25.9511114 268.64261197 -22.31180139 260.01938188 -21.546875 250.97265625 C-21.21875905 233.22705219 -27.03618844 217.96254064 -38.96484375 204.9609375 C-55.06476181 189.37000187 -76.9703723 184.6023617 -98.75 184.125 C-111.77544123 184.41009858 -124.31651305 186.45617322 -136.75 190.375 Z M57.25 207.375 C51.64757104 214.63748935 46.98593902 222.5927869 44.25 231.375 C43.91548828 232.39013672 43.91548828 232.39013672 43.57421875 233.42578125 C40.90727466 243.05943642 40.62541103 255.11540203 44.99609375 264.20703125 C53.12990168 278.27015711 66.21624232 285.37894485 81.546875 289.6328125 C121.57230978 299.72329595 161.64348917 292.4122708 201.25 284.375 C206.25189391 265.70126275 205.50858752 244.87976358 202.9375 225.8125 C202.81987305 224.92224121 202.70224609 224.03198242 202.58105469 223.11474609 C201.63096056 216.90997538 200.37432613 213.09958734 195.34375 209.015625 C194.15619117 208.20339465 192.95744024 207.40736958 191.75 206.625 C191.09346436 206.19670898 190.43692871 205.76841797 189.76049805 205.32714844 C152.43128443 181.65177739 90.58085515 170.44226212 57.25 207.375 Z M-7.75 276.375 C-9.41390749 278.61808557 -9.41390749 278.61808557 -9.75 281.375 C-8.51680379 285.40344094 -6.91721449 287.54821948 -3.375 289.6875 C3.7701993 293.01371347 12.2394499 293.73881837 19.890625 291.65625 C24.48506128 289.76979272 27.67729305 287.77004104 30.25 283.375 C31.31546898 280.88547485 31.31546898 280.88547485 31.25 278.375 C29.51635169 275.25443304 28.69004627 274.52168209 25.25 273.375 C8.02430928 271.02840387 8.02430928 271.02840387 -7.75 276.375 Z M10.25 306.375 C9.404375 307.138125 8.55875 307.90125 7.6875 308.6875 C2.06139828 313.30378859 -3.14989788 314.8195271 -10.3359375 314.61328125 C-13.6071664 314.29039296 -16.60441751 313.30702444 -19.75 312.375 C-22.47288569 312.16441711 -25.01020817 312.23328663 -27.75 312.375 C-29.02904792 313.46543376 -29.02904792 313.46543376 -29.25 316.0625 C-28.60086347 320.36302953 -26.93854963 321.51637305 -23.671875 324.17578125 C-17.45165584 328.05709686 -7.85450342 327.08355856 -0.75 326.375 C2.56636557 325.42869595 5.28917627 324.10562232 8.25 322.375 C11.25 321.375 11.25 321.375 13.640625 322.37109375 C14.58421875 322.84675781 15.5278125 323.32242187 16.5 323.8125 C24.43873304 327.25742901 32.70720328 327.94127726 41.09765625 325.5703125 C44.73005962 324.04647499 47.72505495 322.4636178 50.25 319.375 C50.50048636 316.24950983 50.50048636 316.24950983 50.25 313.375 C46.09663188 311.27183727 43.96162034 311.37564198 39.5625 312.75 C31.36287325 314.99357885 24.60827673 315.84572512 17.01171875 311.53125 C14.62074204 309.96200586 12.40157089 308.25762453 10.25 306.375 Z " fill="#FFFFFF" transform="translate(249.75,1.625)"/>
<path d="M0 0 C7.0475803 4.74686928 11.55083459 11.55609102 13.76953125 19.71484375 C14.10546875 23.1875 14.10546875 23.1875 14.14453125 26.77734375 C14.17289062 27.96457031 14.20125 29.15179688 14.23046875 30.375 C13.68079264 34.35782266 12.68843405 35.98343992 9.76953125 38.71484375 C6.68503768 39.66823267 3.90976707 39.3779651 0.76953125 38.71484375 C-3.52044193 36.10721299 -5.59980058 33.27997595 -8.29296875 29.08984375 C-11.07090118 24.77975271 -13.12550409 22.40157506 -18.296875 21.2578125 C-23.37235309 20.47630911 -27.46538518 20.55707006 -32.23046875 22.71484375 C-36.45447062 26.47181838 -39.37593737 31.29527335 -42.25 36.11328125 C-43.23046875 37.71484375 -43.23046875 37.71484375 -44.23046875 38.71484375 C-47.28444427 39.15653442 -50.18076952 39.19200758 -53.23046875 38.71484375 C-55.98616322 36.5332523 -57.66635622 34.84306881 -59.23046875 31.71484375 C-60.08380275 22.3281698 -56.86192794 13.75867761 -50.91796875 6.4921875 C-37.47649721 -7.66491794 -16.70687699 -9.62620408 0 0 Z " fill="#FFFFFF" transform="translate(372.23046875,224.28515625)"/>
<path d="M0 0 C6.97185533 5.78577206 10.92847519 12.94278986 11.84765625 21.99609375 C12.01778357 27.4475649 11.7386037 31.54550228 8.5625 36.1875 C5.08202449 37.92773775 1.36067575 37.76029491 -2.4375 37.1875 C-4.98304389 35.00560523 -6.18551141 32.64354852 -7.79296875 29.734375 C-10.8185506 24.34025391 -10.8185506 24.34025391 -15.1875 20.0625 C-20.91048326 18.52169681 -26.11512512 18.39876891 -31.75 20.3125 C-34.94106252 22.53882269 -37.15675941 25.08679527 -39.4375 28.1875 C-40.49903694 29.62571133 -41.56155903 31.06319598 -42.625 32.5 C-43.11355469 33.17675781 -43.60210937 33.85351562 -44.10546875 34.55078125 C-45.4375 36.1875 -45.4375 36.1875 -47.4375 37.1875 C-52.38516914 37.56090899 -55.54842983 37.40987243 -59.4375 34.1875 C-61.99737546 30.34768681 -61.66837004 26.4236387 -61.1015625 22.0078125 C-58.81895144 12.31342905 -53.48746971 4.27177558 -45.2734375 -1.2734375 C-31.31805926 -9.56993384 -13.46550254 -9.38809803 0 0 Z " fill="#FFFFFF" transform="translate(194.4375,225.8125)"/>
</svg>
