<?xml version="1.0" encoding="UTF-8"?>
<svg version="1.1" xmlns="http://www.w3.org/2000/svg" width="512" height="488">
<path d="M0 0 C6.00446308 2.43378658 9.98512131 6.34710245 13 12 C14.25282725 15.75848174 14.12381835 19.25490919 14.09765625 23.16796875 C14.09553383 24.36018791 14.09553383 24.36018791 14.09336853 25.57649231 C14.08777378 28.11353325 14.07522228 30.65048575 14.0625 33.1875 C14.05748432 34.90820185 14.05292153 36.62890508 14.04882812 38.34960938 C14.03780607 42.5664403 14.02054506 46.78320516 14 51 C15.3912207 50.96072388 15.3912207 50.96072388 16.81054688 50.9206543 C20.28466615 50.83492984 23.75764586 50.77251241 27.23242188 50.7253418 C28.72999923 50.70034993 30.22745651 50.66634373 31.72460938 50.62280273 C46.9679076 50.19090928 46.9679076 50.19090928 52.41015625 54.44604492 C55.26888704 57.24024356 57.81461433 60.14266368 60.25 63.3125 C60.80228271 64.01109131 61.35456543 64.70968262 61.92358398 65.42944336 C66.22640121 70.90469703 70.40254253 76.47781384 74.55200195 82.06982422 C78.39145026 87.2348939 82.37624073 92.26547242 86.41894531 97.2722168 C91.85396792 104.02162028 97.15119637 110.88455794 102.31490707 117.84401798 C103.95578353 120.01334976 103.95578353 120.01334976 105.80379105 121.9055624 C111.61995795 128.33694834 111.99606482 133.65319284 111.87402344 142.10375977 C111.88760391 144.03229294 111.88760391 144.03229294 111.90145874 145.99978638 C111.92468082 149.50228738 111.90434267 153.00326191 111.8744154 156.5056622 C111.84910348 160.18411385 111.85983189 163.86248986 111.86529541 167.54100037 C111.86887184 173.71532719 111.84442576 179.88905525 111.80273438 186.06323242 C111.75494188 193.18615627 111.74970879 200.30813464 111.7676847 207.43117481 C111.78419729 214.30464771 111.77228729 221.17778462 111.74695587 228.05122185 C111.73659406 230.96695155 111.73573084 233.88245073 111.74260712 236.79818916 C111.75054118 240.87451357 111.71672576 244.94947999 111.67871094 249.02563477 C111.68569 250.22638138 111.69266907 251.42712799 111.69985962 252.66426086 C111.59254027 259.7206193 110.69194968 264.5770673 106 270 C101.25952793 274.39360826 97.65801675 276.24784557 91.18901443 276.26006222 C89.3974866 276.2706606 89.3974866 276.2706606 87.56976628 276.2814731 C86.25617029 276.27905802 84.9425743 276.27664293 83.58917236 276.27415466 C82.18073706 276.27860633 80.77230426 276.28392013 79.36387515 276.29002339 C75.48899995 276.30422261 71.61420489 276.30586632 67.7393074 276.30542648 C63.5619363 276.307073 59.38459837 276.32013646 55.20724487 276.33161926 C46.07087281 276.35448143 36.93452396 276.36239121 27.79812717 276.36744571 C22.09399888 276.37070137 16.38987734 276.37722306 10.68575287 276.3844471 C-5.10543475 276.40401475 -20.89661609 276.42041794 -36.68781662 276.42332363 C-38.20397172 276.42360499 -38.20397172 276.42360499 -39.75075622 276.42389202 C-41.79986334 276.42425828 -43.84897046 276.42462198 -45.89807758 276.42498314 C-46.91526666 276.42516595 -47.93245575 276.42534876 -48.98046875 276.42553711 C-50.50811339 276.42580793 -50.50811339 276.42580793 -52.06661955 276.42608423 C-68.57006134 276.42962611 -85.07337266 276.45664867 -101.5767692 276.494035 C-118.51808738 276.53210645 -135.4593408 276.55148102 -152.40070271 276.55178314 C-161.91367202 276.55236798 -171.4264857 276.560877 -180.93941498 276.58978081 C-189.03970856 276.61427917 -197.13978977 276.62158807 -205.24011037 276.60653328 C-209.37282847 276.59935796 -213.50512709 276.60024826 -217.63779831 276.62294388 C-221.42303901 276.64353225 -225.2075377 276.64093562 -228.99277034 276.62006903 C-231.00680434 276.61492109 -233.02085516 276.63435482 -235.03479266 276.65473074 C-242.30673061 276.58719733 -247.44136244 275.92471841 -253 271 C-257.28803849 266.37343215 -259.23622971 262.75356391 -259.30780029 256.43664551 C-259.32500122 255.30416382 -259.34220215 254.17168213 -259.35992432 253.00488281 C-259.36844421 251.76641602 -259.37696411 250.52794922 -259.38574219 249.25195312 C-259.40209717 247.94415894 -259.41845215 246.63636475 -259.43530273 245.28894043 C-259.48764357 240.95312693 -259.51835784 236.61727591 -259.546875 232.28125 C-259.55760038 230.78449991 -259.56835541 229.28775003 -259.57913971 227.79100037 C-259.62239171 221.55957632 -259.65985594 215.32816238 -259.68238449 209.09662628 C-259.71480423 200.18976003 -259.78101169 191.28464685 -259.89518619 182.37844133 C-259.97285554 176.10391564 -260.01168169 169.82985597 -260.02222562 163.5548625 C-260.02949983 159.81349148 -260.05316924 156.07399189 -260.11843109 152.33314514 C-260.56682436 125.34452192 -260.56682436 125.34452192 -254.13110352 118.33300781 C-252.46183261 116.84136473 -250.75574075 115.38882643 -249 114 C-247.90791566 112.66495086 -246.84805792 111.30121748 -245.85546875 109.890625 C-245.41332031 109.28992188 -244.97117188 108.68921875 -244.515625 108.0703125 C-244.07734375 107.46960938 -243.6390625 106.86890625 -243.1875 106.25 C-238.58339527 100.02303851 -233.7867504 93.99200056 -228.86499023 88.01416016 C-225.01759615 83.317102 -221.35512323 78.5097141 -217.75 73.625 C-202.96699163 53.68518433 -202.96699163 53.68518433 -194 52 C-191.74043504 51.90986584 -189.47834131 51.87803751 -187.21697998 51.87974548 C-186.53569259 51.87889106 -185.8544052 51.87803663 -185.15247273 51.87715632 C-182.87082742 51.8755099 -180.58925572 51.88100916 -178.30761719 51.88647461 C-176.67158001 51.88675669 -175.03554271 51.88659834 -173.39950562 51.8860321 C-168.95772431 51.88574494 -164.51596995 51.89162869 -160.07419491 51.89860606 C-155.43237888 51.90485297 -150.79056226 51.90544446 -146.14874268 51.90663147 C-137.35862684 51.90974083 -128.56852342 51.91794892 -119.77841306 51.92798096 C-109.77125725 51.93915434 -99.76410085 51.94465564 -89.75694036 51.94967639 C-69.17128664 51.96013184 -48.5856441 51.97772367 -28 52 C-28.02094727 50.92105469 -28.04189453 49.84210937 -28.06347656 48.73046875 C-28.13630424 44.69756532 -28.18195384 40.6647191 -28.21972656 36.63134766 C-28.23974522 34.89133911 -28.26696886 33.15139701 -28.30175781 31.41162109 C-28.35070952 28.89924654 -28.37306587 26.38776725 -28.390625 23.875 C-28.41127014 23.10696045 -28.43191528 22.3389209 -28.45318604 21.54760742 C-28.45548677 15.91110429 -27.07430164 11.73822869 -24 7 C-21.9296875 4.94140625 -21.9296875 4.94140625 -19.875 3.5625 C-18.85019531 2.85287109 -18.85019531 2.85287109 -17.8046875 2.12890625 C-12.38541737 -1.26107009 -6.20018212 -0.70077408 0 0 Z M-190.97509766 106.45361328 C-191.28210602 107.15753204 -191.58911438 107.86145081 -191.90542603 108.58670044 C-193.37914922 111.83594227 -195.22985911 114.90225344 -197 118 C-158.39 118 -119.78 118 -80 118 C-81.98 115.03 -83.96 112.06 -86 109 C-86.84615875 107.58042999 -87.6923175 106.16085999 -88.56411743 104.69827271 C-93.74880914 96.22988225 -93.74880914 96.22988225 -102.09735107 91.48138428 C-106.85408485 90.66755829 -111.58796248 90.71711653 -116.3984375 90.8046875 C-118.16383239 90.78878443 -119.92919226 90.7684449 -121.69448853 90.743927 C-125.37962403 90.7114796 -129.05853927 90.73718368 -132.74316406 90.80419922 C-137.43142807 90.88414575 -142.10279544 90.80945152 -146.78979111 90.69491196 C-173.12778425 89.44917101 -173.12778425 89.44917101 -190.97509766 106.45361328 Z M-45 93 C-43.50613416 96.06946829 -41.8440584 98.72733402 -39.8125 101.4765625 C-39.19632813 102.311875 -38.58015625 103.1471875 -37.9453125 104.0078125 C-36.98238281 105.30332031 -36.98238281 105.30332031 -36 106.625 C-35.35804688 107.49640625 -34.71609375 108.3678125 -34.0546875 109.265625 C-30.74143875 113.81457756 -30.74143875 113.81457756 -27 118 C-24.59073766 118.18765773 -22.29751603 118.25200981 -19.88818359 118.22705078 C-19.15637375 118.22734283 -18.4245639 118.22763489 -17.670578 118.22793579 C-15.24641146 118.22654001 -12.82255049 118.2109674 -10.3984375 118.1953125 C-8.71977913 118.19158325 -7.04111859 118.18873586 -5.36245728 118.18673706 C-0.94008393 118.17909369 3.48215845 118.15943922 7.90447998 118.1373291 C12.41546863 118.11688579 16.9264784 118.10773859 21.4375 118.09765625 C30.29172427 118.07619394 39.14585125 118.04204955 48 118 C47.41964996 117.17338867 47.41964996 117.17338867 46.82757568 116.33007812 C44.22097229 112.53411052 41.87431329 108.92909533 40.13378906 104.65625 C37.73234913 99.53066119 35.06227365 95.73770944 30 93 C18.43010914 90.3994247 6.17191979 91.41881416 -5.59112549 91.90136719 C-10.03479804 92.06620833 -14.47992114 92.13835798 -18.92578125 92.21875 C-27.62119421 92.38943755 -36.30949658 92.66178993 -45 93 Z M-219 158 C-219 183.74 -219 209.48 -219 236 C-165.54 236 -112.08 236 -57 236 C-57 210.26 -57 184.52 -57 158 C-110.46 158 -163.92 158 -219 158 Z M-16 158 C-16 183.74 -16 209.48 -16 236 C12.71 236 41.42 236 71 236 C71 210.26 71 184.52 71 158 C42.29 158 13.58 158 -16 158 Z " fill="#FFFFFF" transform="translate(259,0)"/>
<path d="M0 0 C2.3046875 1.40625 2.3046875 1.40625 4.5 3 C5.26570313 3.5465625 6.03140625 4.093125 6.8203125 4.65625 C29.34207111 22.67365689 34.35999833 59.23143603 37.5 86 C38.29423974 93.36359325 38.66997096 100.65010294 38.703125 108.0546875 C38.70882507 109.07692413 38.71452515 110.09916077 38.72039795 111.15237427 C38.72978124 113.30534859 38.73635511 115.45833685 38.74023438 117.61132812 C38.74987223 120.83230089 38.78093299 124.05261563 38.8125 127.2734375 C38.95207544 154.5095983 36.24615808 185.01422268 16.80859375 205.9140625 C14.5 208 14.5 208 11.39941406 209.56298828 C8.42490722 211.60413858 8.42490722 211.60413858 7.95448303 213.88601685 C7.75749436 216.30126345 7.74810288 218.65534991 7.80078125 221.078125 C7.79418991 221.96352966 7.78759857 222.84893433 7.7808075 223.76116943 C7.76332356 226.59154368 7.78529975 229.41973018 7.8125 232.25 C7.82383941 235.06555228 7.82636254 237.88044185 7.8120575 240.69598389 C7.80473545 242.44570586 7.8126528 244.19558236 7.8384552 245.94512939 C7.83415407 254.05817454 5.71601883 260.52975425 0.078125 266.5234375 C-5.12211802 271.38901142 -10.44143977 271.58603454 -17.3046875 271.4140625 C-23.39397161 270.62498656 -27.28572706 267.52155935 -31.375 263.125 C-35.60023595 256.91141772 -35.74150979 250.8262874 -35.59765625 243.59375 C-35.59359375 241.77995141 -35.59170676 239.96614688 -35.59179688 238.15234375 C-35.58368669 235.32066082 -35.56232928 232.49176143 -35.50366211 229.66064453 C-34.84350395 218.94717347 -34.84350395 218.94717347 -38.43847656 209.30297852 C-40.7169896 207.56062721 -42.97090477 206.33344449 -45.5 205 C-54.38335465 195.9321858 -59.23716204 184.22730459 -62.3125 172.125 C-62.50730957 171.36018311 -62.70211914 170.59536621 -62.90283203 169.80737305 C-66.65268066 153.82508871 -66.86780026 137.89092539 -66.8125 121.5625 C-66.81067719 120.45127777 -66.80885437 119.34005554 -66.80697632 118.19515991 C-66.76293903 102.28048468 -66.47828955 86.68066567 -63.5 71 C-63.32307617 70.03255859 -63.14615234 69.06511719 -62.96386719 68.06835938 C-58.74240304 45.51013818 -52.7584473 17.24145681 -32.8125 3.09375 C-23.31785388 -2.75760168 -10.50411214 -4.94506385 0 0 Z M-14.5 46 C-26.03471047 82.22389927 -34.56010575 132.19560552 -20.5 169 C-18.16746804 173.33100352 -18.16746804 173.33100352 -14.25 175.875 C-13.6725 175.91625 -13.095 175.9575 -12.5 176 C-0.13961108 163.63961108 -1.42503205 138.97002262 -1.3125 122.6875 C-0.38436656 82.12201627 -0.38436656 82.12201627 -14.5 46 Z " fill="#FFFFFF" transform="translate(466.5,5)"/>
<path d="M0 0 C1.79152784 -0.01059839 1.79152784 -0.01059839 3.61924815 -0.02141088 C5.58964214 -0.01778826 5.58964214 -0.01778826 7.59984207 -0.01409245 C9.00827737 -0.01854411 10.41671017 -0.02385792 11.82513928 -0.02996117 C15.70001448 -0.04416039 19.57480954 -0.0458041 23.44970703 -0.04536426 C27.62707814 -0.04701078 31.80441606 -0.06007424 35.98176956 -0.07155704 C45.11814162 -0.09441921 54.25449047 -0.10232899 63.39088726 -0.10738349 C69.09501555 -0.11063915 74.79913709 -0.11716084 80.50326157 -0.12438488 C96.29444919 -0.14395253 112.08563053 -0.16035573 127.87683105 -0.16326141 C128.88760112 -0.16344898 129.89837119 -0.16363655 130.93977065 -0.16382981 C132.98887777 -0.16419606 135.03798489 -0.16455976 137.08709201 -0.16492092 C138.1042811 -0.16510373 139.12147019 -0.16528654 140.16948318 -0.16547489 C141.69712783 -0.16574572 141.69712783 -0.16574572 143.25563398 -0.16602201 C159.75907577 -0.1695639 176.2623871 -0.19658645 192.76578364 -0.23397278 C209.70710181 -0.27204423 226.64835524 -0.29141881 243.58971715 -0.29172093 C253.10268645 -0.29230576 262.61550014 -0.30081478 272.12842941 -0.32971859 C280.22872299 -0.35421695 288.3288042 -0.36152586 296.4291248 -0.34647106 C300.5618429 -0.33929574 304.69414152 -0.34018604 308.82681274 -0.36288166 C312.61205344 -0.38347004 316.39655214 -0.3808734 320.18178478 -0.36000682 C322.19581878 -0.35485887 324.20986959 -0.3742926 326.2238071 -0.39466852 C333.49574505 -0.32713511 338.63037687 0.33534381 344.18901443 5.26006222 C349.75287389 11.26317373 350.6987542 15.91251709 350.57182693 23.99053097 C349.86045734 30.06620801 347.00212181 33.57962123 342.62651443 37.63506222 C338.33288635 40.49748094 335.6056109 41.5102522 330.37802887 41.52012444 C328.58650103 41.53072282 328.58650103 41.53072282 326.75878072 41.54153532 C324.78838673 41.53791269 324.78838673 41.53791269 322.7781868 41.53421688 C321.3697515 41.53866854 319.9613187 41.54398235 318.55288959 41.5500856 C314.67801439 41.56428483 310.80321933 41.56592853 306.92832184 41.5654887 C302.75095073 41.56713522 298.57361281 41.58019867 294.39625931 41.59168148 C285.25988725 41.61454364 276.1235384 41.62245342 266.98714161 41.62750793 C261.28301332 41.63076359 255.57889178 41.63728528 249.8747673 41.64450932 C234.08357968 41.66407697 218.29239834 41.68048016 202.50119781 41.68338585 C200.98504271 41.6836672 200.98504271 41.6836672 199.43825822 41.68395424 C197.3891511 41.68432049 195.34004398 41.68468419 193.29093686 41.68504535 C192.27374777 41.68522817 191.25655868 41.68541098 190.20854568 41.68559933 C188.68090104 41.68587015 188.68090104 41.68587015 187.12239489 41.68614645 C170.6189531 41.68968833 154.11564177 41.71671088 137.61224523 41.75409722 C120.67092706 41.79216866 103.72967363 41.81154324 86.78831172 41.81184536 C77.27534242 41.8124302 67.76252873 41.82093921 58.24959946 41.84984303 C50.14930588 41.87434139 42.04922467 41.88165029 33.94890407 41.8665955 C29.81618597 41.85942017 25.68388735 41.86031048 21.55121613 41.8830061 C17.76597543 41.90359447 13.98147673 41.90099784 10.19624409 41.88013125 C8.18221009 41.87498331 6.16815928 41.89441704 4.15422177 41.91479295 C-3.11771618 41.84725955 -8.252348 41.18478063 -13.81098557 36.26006222 C-19.37484502 30.2569507 -20.32072533 25.60760734 -20.19379807 17.52959347 C-19.48242847 11.45391642 -16.62409294 7.9405032 -12.24848557 3.88506222 C-7.95485748 1.02264349 -5.22758203 0.00987224 0 0 Z " fill="#FFFFFF" transform="translate(19.810985565185547,444.7399377822876)"/>
<path d="M0 0 C1.79152784 -0.01059839 1.79152784 -0.01059839 3.61924815 -0.02141088 C5.58964214 -0.01778826 5.58964214 -0.01778826 7.59984207 -0.01409245 C9.00827737 -0.01854411 10.41671017 -0.02385792 11.82513928 -0.02996117 C15.70001448 -0.04416039 19.57480954 -0.0458041 23.44970703 -0.04536426 C27.62707814 -0.04701078 31.80441606 -0.06007424 35.98176956 -0.07155704 C45.11814162 -0.09441921 54.25449047 -0.10232899 63.39088726 -0.10738349 C69.09501555 -0.11063915 74.79913709 -0.11716084 80.50326157 -0.12438488 C96.29444919 -0.14395253 112.08563053 -0.16035573 127.87683105 -0.16326141 C128.88760112 -0.16344898 129.89837119 -0.16363655 130.93977065 -0.16382981 C132.98887777 -0.16419606 135.03798489 -0.16455976 137.08709201 -0.16492092 C138.1042811 -0.16510373 139.12147019 -0.16528654 140.16948318 -0.16547489 C141.69712783 -0.16574572 141.69712783 -0.16574572 143.25563398 -0.16602201 C159.75907577 -0.1695639 176.2623871 -0.19658645 192.76578364 -0.23397278 C209.70710181 -0.27204423 226.64835524 -0.29141881 243.58971715 -0.29172093 C253.10268645 -0.29230576 262.61550014 -0.30081478 272.12842941 -0.32971859 C280.22872299 -0.35421695 288.3288042 -0.36152586 296.4291248 -0.34647106 C300.5618429 -0.33929574 304.69414152 -0.34018604 308.82681274 -0.36288166 C312.61205344 -0.38347004 316.39655214 -0.3808734 320.18178478 -0.36000682 C322.19581878 -0.35485887 324.20986959 -0.3742926 326.2238071 -0.39466852 C333.49574505 -0.32713511 338.63037687 0.33534381 344.18901443 5.26006222 C349.75287389 11.26317373 350.6987542 15.91251709 350.57182693 23.99053097 C349.86045734 30.06620801 347.00212181 33.57962123 342.62651443 37.63506222 C338.33288635 40.49748094 335.6056109 41.5102522 330.37802887 41.52012444 C328.58650103 41.53072282 328.58650103 41.53072282 326.75878072 41.54153532 C324.78838673 41.53791269 324.78838673 41.53791269 322.7781868 41.53421688 C321.3697515 41.53866854 319.9613187 41.54398235 318.55288959 41.5500856 C314.67801439 41.56428483 310.80321933 41.56592853 306.92832184 41.5654887 C302.75095073 41.56713522 298.57361281 41.58019867 294.39625931 41.59168148 C285.25988725 41.61454364 276.1235384 41.62245342 266.98714161 41.62750793 C261.28301332 41.63076359 255.57889178 41.63728528 249.8747673 41.64450932 C234.08357968 41.66407697 218.29239834 41.68048016 202.50119781 41.68338585 C200.98504271 41.6836672 200.98504271 41.6836672 199.43825822 41.68395424 C197.3891511 41.68432049 195.34004398 41.68468419 193.29093686 41.68504535 C192.27374777 41.68522817 191.25655868 41.68541098 190.20854568 41.68559933 C188.68090104 41.68587015 188.68090104 41.68587015 187.12239489 41.68614645 C170.6189531 41.68968833 154.11564177 41.71671088 137.61224523 41.75409722 C120.67092706 41.79216866 103.72967363 41.81154324 86.78831172 41.81184536 C77.27534242 41.8124302 67.76252873 41.82093921 58.24959946 41.84984303 C50.14930588 41.87434139 42.04922467 41.88165029 33.94890407 41.8665955 C29.81618597 41.85942017 25.68388735 41.86031048 21.55121613 41.8830061 C17.76597543 41.90359447 13.98147673 41.90099784 10.19624409 41.88013125 C8.18221009 41.87498331 6.16815928 41.89441704 4.15422177 41.91479295 C-3.11771618 41.84725955 -8.252348 41.18478063 -13.81098557 36.26006222 C-19.37484502 30.2569507 -20.32072533 25.60760734 -20.19379807 17.52959347 C-19.48242847 11.45391642 -16.62409294 7.9405032 -12.24848557 3.88506222 C-7.95485748 1.02264349 -5.22758203 0.00987224 0 0 Z " fill="#FFFFFF" transform="translate(19.810985565185547,374.7399377822876)"/>
<path d="M0 0 C1.79152784 -0.01059839 1.79152784 -0.01059839 3.61924815 -0.02141088 C5.58964214 -0.01778826 5.58964214 -0.01778826 7.59984207 -0.01409245 C9.00827737 -0.01854411 10.41671017 -0.02385792 11.82513928 -0.02996117 C15.70001448 -0.04416039 19.57480954 -0.0458041 23.44970703 -0.04536426 C27.62707814 -0.04701078 31.80441606 -0.06007424 35.98176956 -0.07155704 C45.11814162 -0.09441921 54.25449047 -0.10232899 63.39088726 -0.10738349 C69.09501555 -0.11063915 74.79913709 -0.11716084 80.50326157 -0.12438488 C96.29444919 -0.14395253 112.08563053 -0.16035573 127.87683105 -0.16326141 C128.88760112 -0.16344898 129.89837119 -0.16363655 130.93977065 -0.16382981 C132.98887777 -0.16419606 135.03798489 -0.16455976 137.08709201 -0.16492092 C138.1042811 -0.16510373 139.12147019 -0.16528654 140.16948318 -0.16547489 C141.69712783 -0.16574572 141.69712783 -0.16574572 143.25563398 -0.16602201 C159.75907577 -0.1695639 176.2623871 -0.19658645 192.76578364 -0.23397278 C209.70710181 -0.27204423 226.64835524 -0.29141881 243.58971715 -0.29172093 C253.10268645 -0.29230576 262.61550014 -0.30081478 272.12842941 -0.32971859 C280.22872299 -0.35421695 288.3288042 -0.36152586 296.4291248 -0.34647106 C300.5618429 -0.33929574 304.69414152 -0.34018604 308.82681274 -0.36288166 C312.61205344 -0.38347004 316.39655214 -0.3808734 320.18178478 -0.36000682 C322.19581878 -0.35485887 324.20986959 -0.3742926 326.2238071 -0.39466852 C333.49574505 -0.32713511 338.63037687 0.33534381 344.18901443 5.26006222 C349.75287389 11.26317373 350.6987542 15.91251709 350.57182693 23.99053097 C349.86045734 30.06620801 347.00212181 33.57962123 342.62651443 37.63506222 C338.33288635 40.49748094 335.6056109 41.5102522 330.37802887 41.52012444 C328.58650103 41.53072282 328.58650103 41.53072282 326.75878072 41.54153532 C324.78838673 41.53791269 324.78838673 41.53791269 322.7781868 41.53421688 C321.3697515 41.53866854 319.9613187 41.54398235 318.55288959 41.5500856 C314.67801439 41.56428483 310.80321933 41.56592853 306.92832184 41.5654887 C302.75095073 41.56713522 298.57361281 41.58019867 294.39625931 41.59168148 C285.25988725 41.61454364 276.1235384 41.62245342 266.98714161 41.62750793 C261.28301332 41.63076359 255.57889178 41.63728528 249.8747673 41.64450932 C234.08357968 41.66407697 218.29239834 41.68048016 202.50119781 41.68338585 C200.98504271 41.6836672 200.98504271 41.6836672 199.43825822 41.68395424 C197.3891511 41.68432049 195.34004398 41.68468419 193.29093686 41.68504535 C192.27374777 41.68522817 191.25655868 41.68541098 190.20854568 41.68559933 C188.68090104 41.68587015 188.68090104 41.68587015 187.12239489 41.68614645 C170.6189531 41.68968833 154.11564177 41.71671088 137.61224523 41.75409722 C120.67092706 41.79216866 103.72967363 41.81154324 86.78831172 41.81184536 C77.27534242 41.8124302 67.76252873 41.82093921 58.24959946 41.84984303 C50.14930588 41.87434139 42.04922467 41.88165029 33.94890407 41.8665955 C29.81618597 41.85942017 25.68388735 41.86031048 21.55121613 41.8830061 C17.76597543 41.90359447 13.98147673 41.90099784 10.19624409 41.88013125 C8.18221009 41.87498331 6.16815928 41.89441704 4.15422177 41.91479295 C-3.11771618 41.84725955 -8.252348 41.18478063 -13.81098557 36.26006222 C-19.37484502 30.2569507 -20.32072533 25.60760734 -20.19379807 17.52959347 C-19.48242847 11.45391642 -16.62409294 7.9405032 -12.24848557 3.88506222 C-7.95485748 1.02264349 -5.22758203 0.00987224 0 0 Z " fill="#FFFFFF" transform="translate(19.810985565185547,305.7399377822876)"/>
<path d="M0 0 C5.01327572 3.79052555 8.5431692 7.94557115 10.5625 13.9375 C10.82256222 16.91985035 10.82256222 16.91985035 10.83665466 20.29341125 C10.84662979 21.57608887 10.85660492 22.85876648 10.86688232 24.18031311 C10.86777804 25.59457385 10.86844165 27.00883475 10.86889648 28.4230957 C10.87652125 29.91822726 10.88494929 31.4133549 10.89411926 32.90847778 C10.9160402 36.96438223 10.92485994 41.0202113 10.92994571 45.0761683 C10.93359219 47.61219628 10.93983377 50.14820461 10.9469471 52.68422508 C10.97143345 61.53745768 10.98449168 70.39063176 10.98803711 79.24389648 C10.99167154 87.48679203 11.02156219 95.72931504 11.06344169 103.97209674 C11.0981709 111.05677795 11.113586 118.14133585 11.11428314 125.22610158 C11.11507508 129.45406021 11.12377495 133.68163924 11.15228081 137.90950966 C11.17850682 141.88811662 11.18064193 145.86603046 11.16462517 149.8446846 C11.16281423 151.30070829 11.16946938 152.75677225 11.18544388 154.21270943 C11.26895174 162.32132545 11.2031364 168.71654514 5.5625 174.9375 C-0.44061151 180.50135945 -5.08995488 181.44723977 -13.16796875 181.3203125 C-19.2436458 180.60894291 -22.75705902 177.75060738 -26.8125 173.375 C-29.78834776 168.91122837 -30.6890821 166.10774633 -30.71165466 160.66387939 C-30.72162979 159.37416229 -30.73160492 158.08444519 -30.74188232 156.75564575 C-30.7427781 155.32830823 -30.74344168 153.90097054 -30.74389648 152.47363281 C-30.751519 150.96879668 -30.75994665 149.46396444 -30.76911926 147.95913696 C-30.79106497 143.87218264 -30.7998635 139.78530314 -30.80494571 135.69829655 C-30.80858987 133.1433454 -30.81483031 130.58841383 -30.8219471 128.03347015 C-30.846444 119.11540364 -30.85949355 110.1973953 -30.86303711 101.27929688 C-30.8666703 92.97450723 -30.89654932 84.67008763 -30.93844169 76.36541104 C-30.97317115 69.22979509 -30.98858603 62.09430159 -30.98928314 54.95860171 C-30.9900752 50.69933022 -30.99878037 46.44043549 -31.02728081 42.18125153 C-31.05350654 38.17229074 -31.05564205 34.16401783 -31.03962517 30.15501022 C-31.03781409 28.6876996 -31.04447064 27.22034903 -31.06044388 25.75312424 C-31.14353293 17.62194929 -31.10590127 11.17285786 -25.4375 4.9375 C-18.08662227 -1.87550863 -9.59377594 -2.96534893 0 0 Z " fill="#FFFFFF" transform="translate(431.4375,307.0625)"/>
<path d="M0 0 C5.98711909 3.39346254 9.40327346 8.72935163 11.546875 15.16015625 C11.64880077 17.18405355 11.69058154 19.21115802 11.70077515 21.2375946 C11.70937561 22.50910873 11.71797607 23.78062286 11.72683716 25.09066772 C11.73127231 26.50274617 11.73557067 27.91482506 11.73974609 29.3269043 C11.74764856 30.81188651 11.7559176 32.29686681 11.76452637 33.78184509 C11.79073246 38.66183644 11.80605381 43.54183631 11.8203125 48.421875 C11.82567299 50.10289833 11.8310505 51.78392161 11.83644485 53.46494484 C11.85807259 60.45897904 11.87680821 67.45301095 11.88806725 74.44707012 C11.90429938 84.46396331 11.93746027 94.48046817 11.99446809 104.49721497 C12.03320072 111.54362671 12.05270393 118.58993473 12.05798781 125.63645011 C12.06163709 129.84322043 12.07361261 134.04957644 12.10609055 138.25623131 C12.13622957 142.21673052 12.14246262 146.17656602 12.13070679 150.13715553 C12.13048653 151.58673709 12.13875225 153.03634996 12.15636063 154.48582458 C12.24934088 162.58382308 12.17541389 168.94618069 6.546875 175.16015625 C0.54376349 180.7240157 -4.10557988 181.66989602 -12.18359375 181.54296875 C-18.2592708 180.83159916 -21.77268402 177.97326363 -25.828125 173.59765625 C-28.80397276 169.13388462 -29.7047071 166.33040258 -29.72727966 160.88653564 C-29.73725479 159.59681854 -29.74722992 158.30710144 -29.75750732 156.978302 C-29.7584031 155.55096448 -29.75906668 154.12362679 -29.75952148 152.69628906 C-29.767144 151.19145293 -29.77557165 149.68662069 -29.78474426 148.18179321 C-29.80668997 144.09483889 -29.8154885 140.00795939 -29.82057071 135.9209528 C-29.82421487 133.36600165 -29.83045531 130.81107008 -29.8375721 128.2561264 C-29.862069 119.33805989 -29.87511855 110.42005155 -29.87866211 101.50195312 C-29.8822953 93.19716348 -29.91217432 84.89274388 -29.95406669 76.58806729 C-29.98879615 69.45245134 -30.00421103 62.31695784 -30.00490814 55.18125796 C-30.0057002 50.92198647 -30.01440537 46.66309174 -30.04290581 42.40390778 C-30.06913154 38.39494699 -30.07126705 34.38667408 -30.05525017 30.37766647 C-30.05343909 28.91035585 -30.06009564 27.44300528 -30.07606888 25.97578049 C-30.15915793 17.84460554 -30.12152627 11.39551411 -24.453125 5.16015625 C-17.51998265 -1.265683 -9.16452091 -3.13753502 0 0 Z " fill="#FFFFFF" transform="translate(500.453125,306.83984375)"/>
</svg>
