<?xml version="1.0" encoding="UTF-8"?>
<svg version="1.1" xmlns="http://www.w3.org/2000/svg" width="512" height="512">
<path d="M0 0 C1.0923999 0.00829834 2.1847998 0.01659668 3.31030273 0.02514648 C31.46833376 0.6072407 55.90735546 14.35936447 75.609375 33.90625 C78.90530422 37.5885985 81.87786496 41.51051176 84.875 45.4375 C85.41688965 45.19628418 85.9587793 44.95506836 86.51708984 44.70654297 C111.85682033 33.48534835 137.11159342 25.8367301 164.875 23.4375 C165.84896729 23.35137451 166.82293457 23.26524902 167.82641602 23.17651367 C177.3720862 22.40856557 186.86763509 22.23528719 196.4375 22.25 C197.22968933 22.25093658 198.02187866 22.25187317 198.83807373 22.25283813 C232.11738451 22.33785185 265.01431561 27.07369051 295.0390625 42.15234375 C297.81149494 43.64388145 297.81149494 43.64388145 300.875 43.4375 C302.71001952 41.51653554 302.71001952 41.51653554 304.5 39 C320.4702375 18.42963975 344.8016874 3.73830264 370.875 0.4375 C384.16301748 -0.28673141 397.43744034 -0.86675338 409.875 4.4375 C410.81859375 4.83839844 411.7621875 5.23929687 412.734375 5.65234375 C428.35071948 13.26200314 438.98495616 26.95760139 444.875 43 C450.82053262 60.85724208 449.28477879 79.68034181 441.40625 96.58984375 C427.92323672 121.73830725 402.36306819 137.8326289 375.70141602 146.12841797 C364.65283645 149.4375 364.65283645 149.4375 360.875 149.4375 C360.89071045 150.03997559 360.9064209 150.64245117 360.92260742 151.26318359 C361.59529247 181.1735423 355.69973259 207.20040112 338.875 232.4375 C339.525896 232.53643555 340.17679199 232.63537109 340.84741211 232.73730469 C344.83794833 233.66020267 348.51689782 235.1263902 352.31640625 236.640625 C353.12109848 236.96029236 353.92579071 237.27995972 354.75486755 237.60931396 C356.45111404 238.28600656 358.14633208 238.96528212 359.84057617 239.64697266 C362.42693189 240.6832656 365.02075641 241.69908927 367.61523438 242.71484375 C369.26612781 243.3763507 370.91653564 244.03907112 372.56640625 244.703125 C373.33940567 245.00228821 374.11240509 245.30145142 374.90882874 245.60968018 C379.44421537 247.46750913 382.16663669 249.15819874 384.875 253.4375 C385.6401774 256.22380115 385.51552632 258.62598626 384.875 261.4375 C382.875 264.4375 382.875 264.4375 379.875 266.4375 C373.34892141 267.04518084 368.75713306 265.60794568 362.80859375 263.04296875 C361.97086929 262.69494705 361.13314484 262.34692535 360.27003479 261.98835754 C357.61178584 260.88039382 354.96225871 259.75309598 352.3125 258.625 C350.52983653 257.87826766 348.74663744 257.13281266 346.96289062 256.38867188 C339.91736013 253.44282192 332.89217527 250.45018551 325.875 247.4375 C325.60945313 248.02756836 325.34390625 248.61763672 325.0703125 249.22558594 C323.8419103 251.49873216 322.56755604 253.00317192 320.75 254.828125 C320.1300415 255.45195068 319.51008301 256.07577637 318.87133789 256.71850586 C318.21254639 257.36827393 317.55375488 258.01804199 316.875 258.6875 C315.8703772 259.68632202 315.8703772 259.68632202 314.84545898 260.70532227 C309.79235494 265.67120984 304.58529602 270.23203493 298.875 274.4375 C301.09821559 278.78726963 303.61146493 282.44112946 306.75 286.1875 C311.17129392 291.47382969 315.29148783 296.94925186 319.375 302.5 C319.99874512 303.34594727 320.62249023 304.19189453 321.26513672 305.06347656 C327.46155911 313.51610252 327.46155911 313.51610252 326.875 320.4375 C325.07937595 323.19079021 323.82245078 324.96377461 320.875 326.4375 C317.5625 326.8125 317.5625 326.8125 313.875 326.4375 C309.93614596 322.96204056 306.69399321 318.9151295 303.4375 314.8125 C302.68001465 313.86298462 302.68001465 313.86298462 301.90722656 312.89428711 C295.33303956 304.58263641 289.10484923 296.00840542 282.875 287.4375 C279.59738177 288.10281039 277.01406763 289.31239412 274.0859375 290.9140625 C273.15233398 291.41711914 272.21873047 291.92017578 271.25683594 292.43847656 C270.26458008 292.9744043 269.27232422 293.51033203 268.25 294.0625 C260.84562151 297.99790725 253.4544877 301.67315537 245.625 304.6875 C244.88169434 304.97447754 244.13838867 305.26145508 243.37255859 305.55712891 C240.40629038 306.65892554 238.06425187 307.4375 234.875 307.4375 C234.62492187 308.16195313 234.37484375 308.88640625 234.1171875 309.6328125 C229.88323423 319.19249314 220.99795084 325.07592988 211.875 329.4375 C211.12089844 329.7984375 210.36679687 330.159375 209.58984375 330.53125 C198.33120238 334.82025624 182.82243333 333.81419367 171.703125 329.765625 C163.37251769 325.85346135 154.71063615 319.68994952 150.26171875 311.44921875 C146.9561796 307.27807197 143.51629572 306.41662954 138.5625 304.8125 C128.98466427 301.47519245 120.21546388 297.19327092 111.34057617 292.29833984 C110.42252197 291.7977002 109.50446777 291.29706055 108.55859375 290.78125 C107.74962646 290.32943359 106.94065918 289.87761719 106.10717773 289.41210938 C103.66997551 288.17073973 103.66997551 288.17073973 99.875 288.4375 C98.23981435 289.9159414 98.23981435 289.9159414 96.87890625 291.99609375 C96.32630127 292.76703369 95.77369629 293.53797363 95.2043457 294.33227539 C94.62128662 295.17137451 94.03822754 296.01047363 93.4375 296.875 C92.19404579 298.61293686 90.949222 300.34989453 89.703125 302.0859375 C89.07083984 302.9737793 88.43855469 303.86162109 87.78710938 304.77636719 C84.82195722 308.90304728 81.76592514 312.95745029 78.6875 317 C78.14746338 317.71921631 77.60742676 318.43843262 77.05102539 319.17944336 C76.54563232 319.84339111 76.04023926 320.50733887 75.51953125 321.19140625 C75.07971924 321.77220947 74.63990723 322.3530127 74.18676758 322.95141602 C71.79162623 325.66483969 70.07333276 326.41546303 66.5 326.8125 C62.3115615 326.37921326 60.81259961 325.37509961 57.875 322.4375 C56.31481203 319.31712406 56.57843222 316.88912017 56.875 313.4375 C58.18719735 311.05007096 59.40436778 309.17356248 61.0625 307.0625 C61.50158691 306.47670166 61.94067383 305.89090332 62.39306641 305.28735352 C63.87102287 303.3246909 65.37285557 301.38169744 66.875 299.4375 C68.01564612 297.9345971 69.1549304 296.4306598 70.29296875 294.92578125 C72.51663207 291.99397869 74.7474839 289.06807303 76.9921875 286.15234375 C77.48428711 285.50894043 77.97638672 284.86553711 78.48339844 284.20263672 C79.70558593 282.65238837 81.00750054 281.16569827 82.3203125 279.69140625 C84.0627323 277.60914593 84.0627323 277.60914593 83.9140625 275.36328125 C82.47843786 272.70251829 80.67220741 271.43629669 78.25 269.625 C73.07129325 265.5448068 68.35471197 261.15554671 63.6875 256.5 C63.0157373 255.83701904 62.34397461 255.17403809 61.65185547 254.4909668 C60.72010498 253.55377808 60.72010498 253.55377808 59.76953125 252.59765625 C58.93192261 251.75666382 58.93192261 251.75666382 58.07739258 250.89868164 C56.875 249.4375 56.875 249.4375 56.875 247.4375 C48.70703161 250.43513278 40.58466369 253.50576944 32.55859375 256.8671875 C31.87858307 257.15055969 31.19857239 257.43393188 30.49795532 257.72589111 C27.72760153 258.88115828 24.95808254 260.03785374 22.19604492 261.21289062 C20.13394384 262.08816923 18.0658055 262.94758993 15.99609375 263.8046875 C14.7939624 264.31112793 13.59183105 264.81756836 12.35327148 265.33935547 C8.62221878 266.51730697 5.76355045 266.74802052 1.875 266.4375 C-1.07355414 264.89912393 -2.67206386 263.7767371 -3.7578125 260.56640625 C-4.35439271 257.20905594 -4.46318273 255.23254023 -3.10229492 252.03320312 C-0.42996291 248.52508682 2.77025312 247.35709135 6.76171875 245.80859375 C7.53755814 245.49221451 8.31339752 245.17583527 9.11274719 244.84986877 C11.5901387 243.84295006 14.07565769 242.85831591 16.5625 241.875 C19.02949577 240.8837079 21.49458124 239.88785401 23.95869446 238.88941956 C25.48933047 238.27094297 27.02192483 237.65728183 28.55680847 237.04942322 C33.47073399 235.08601929 38.16809854 232.85710267 42.875 230.4375 C42.30652344 229.50292969 41.73804687 228.56835938 41.15234375 227.60546875 C28.68945886 206.60992582 22.61220798 184.79521916 22.8125 160.375 C22.81701172 159.31861328 22.82152344 158.26222656 22.82617188 157.17382812 C22.83784082 154.59499092 22.85421115 152.01627706 22.875 149.4375 C22.18535156 149.32792969 21.49570313 149.21835938 20.78515625 149.10546875 C14.56936004 148.05671301 8.77208517 146.65749602 2.875 144.4375 C2.07392822 144.1377124 1.27285645 143.8379248 0.44750977 143.52905273 C-12.8014081 138.39856579 -25.52177925 131.99448265 -36.125 122.4375 C-36.81464844 121.87675781 -37.50429688 121.31601563 -38.21484375 120.73828125 C-51.21946251 110.0300635 -61.40734746 94.20823223 -64.125 77.4375 C-65.94721667 57.60296885 -62.7825426 39.86803654 -50.8125 23.625 C-37.55240182 7.81262629 -20.59774724 -0.20387451 0 0 Z M98.6015625 190.78515625 C93.50097101 195.66649154 91.71878241 200.60874226 91.5625 207.625 C91.63948801 214.55392107 92.73664687 219.11322548 97.5234375 224.18359375 C103.6832953 229.79202323 109.24137465 231.02485901 117.51171875 230.875 C123.76603515 230.06143039 128.58333494 227.2478329 132.56640625 222.36328125 C136.76022894 215.89929813 137.72531736 210.08035247 136.875 202.4375 C134.86276029 195.56643756 131.43837789 191.15986593 125.265625 187.5625 C115.48677163 182.96068665 107.00276976 183.94034795 98.6015625 190.78515625 Z M251.12890625 194.515625 C247.66787933 199.82037654 246.10893446 205.09009982 246.875 211.4375 C248.83350212 219.04979125 252.27440273 224.11085151 258.875 228.4375 C264.94221568 231.33454672 271.16424099 231.53265237 277.6015625 229.6328125 C284.95194932 226.41285453 288.37086309 221.44577383 291.875 214.4375 C292.63943875 204.43541979 292.63943875 204.43541979 288.875 195.4375 C288.359375 194.591875 287.84375 193.74625 287.3125 192.875 C282.2770885 187.8395885 276.38277631 185.15277154 269.25 184.875 C261.37605007 185.29701706 255.97345009 188.33784158 251.12890625 194.515625 Z M166.875 263.4375 C160.78998328 270.47370777 158.38220555 277.85313425 158.62109375 287.07421875 C159.75170849 297.59763284 164.49828376 304.91612445 172.4765625 311.66796875 C180.51763663 317.60055276 190.2847459 317.31202112 199.875 316.4375 C203.27424239 315.58286093 205.93443156 314.32323527 208.875 312.4375 C209.91720703 311.81875 209.91720703 311.81875 210.98046875 311.1875 C217.80572278 306.68001516 221.39263035 300.34556543 224.25 292.8125 C225.90965015 283.85038921 224.4413649 276.28507814 220.1875 268.25 C214.00255862 260.727774 207.57901598 256.0691487 197.875 254.4375 C186.18509102 253.57770471 175.86783974 255.52792777 166.875 263.4375 Z " fill="#FFFFFF" transform="translate(64.125,89.5625)"/>
</svg>
